<?xml version="1.0" encoding="UTF-8" standalone="no"?>
<!DOCTYPE svg PUBLIC "-//W3C//DTD SVG 1.1//EN" "http://www.w3.org/Graphics/SVG/1.1/DTD/svg11.dtd">
<svg width="100%" height="100%" viewBox="0 0 794 801" version="1.1" xmlns="http://www.w3.org/2000/svg" xmlns:xlink="http://www.w3.org/1999/xlink" xml:space="preserve" xmlns:serif="http://www.serif.com/" style="fill-rule:evenodd;clip-rule:evenodd;stroke-linejoin:round;stroke-miterlimit:2;">
    <g transform="matrix(1,0,0,1,-110,-113)">
        <g>
            <path d="M485.5,114.5C490.975,113.511 496.642,113.178 502.5,113.5C502.167,130.18 502.501,146.847 503.5,163.5C506.332,162.42 509.165,161.42 512,160.5C511.846,144.801 512.679,129.467 514.5,114.5L514.5,165.5C539.159,166.327 561.825,173.327 582.5,186.5C586.066,191.573 590.232,196.24 595,200.5C611.919,221.029 621.085,244.696 622.5,271.5C623.148,288.857 616.815,302.857 603.5,313.5C602.702,313.043 602.369,312.376 602.5,311.5C608.564,262.738 589.23,228.238 544.5,208C499.434,192.698 460.934,202.531 429,237.5C409.261,263.7 404.928,292.367 416,323.5C420.757,333.757 427.257,342.757 435.5,350.5C432.301,352.864 428.968,355.03 425.5,357C422.378,358.904 419.045,359.571 415.5,359C409.952,340.283 397.618,329.116 378.5,325.5C376.735,324.539 374.735,324.205 372.5,324.5L372.5,282.5C379.112,230.37 406.779,194.203 455.5,174C469.991,168.461 484.991,165.627 500.5,165.5L500.5,114.5L485.5,114.5Z" style="fill:rgb(251,252,252);"/>
        </g>
        <g>
            <path d="M329.5,385.5C324.209,390.636 319.376,396.303 315,402.5C311.557,407.662 310.057,413.328 310.5,419.5C294.134,419.151 277.801,419.651 261.5,421C231.792,426.253 209.292,441.753 194,467.5C177.27,501.612 179.27,534.612 200,566.5C216.333,587.589 237.833,599.755 264.5,603C280.83,603.5 297.163,603.667 313.5,603.5C313.258,618.166 305.925,626.666 291.5,629C278.111,629.075 264.778,629.742 251.5,631C240.466,631.765 229.466,631.599 218.5,630.5C189.54,617.04 168.374,595.706 155,566.5C148.501,551.506 145.001,535.839 144.5,519.5L111.5,519.5C112.273,514.673 112.273,510.006 111.5,505.5C122.679,505.828 133.679,505.495 144.5,504.5C149.085,461.822 168.752,427.988 203.5,403C221.805,391.42 241.805,384.753 263.5,383C285.497,382.5 307.497,382.333 329.5,382.5L329.5,385.5Z" style="fill:rgb(252,253,253);"/>
        </g>
        <g>
            <path d="M847.5,442.5C846.939,448.218 844.272,452.718 839.5,456C851.218,479.911 854.385,505.077 849,531.5C843.254,551.534 835.254,570.534 825,588.5C793.602,624.159 754.436,636.992 707.5,627C704.313,625.134 701.147,623.301 698,621.5C696.964,618.247 696.297,614.914 696,611.5C694.683,608.105 692.517,605.438 689.5,603.5C707.17,603.667 724.836,603.5 742.5,603C790.129,598.358 819.296,572.858 830,526.5C834.024,475.697 812.19,441.53 764.5,424C756.917,422.202 749.25,420.869 741.5,420C727.504,419.5 713.504,419.333 699.5,419.5C699.101,413.695 697.267,408.362 694,403.5C689.595,399.917 685.428,396.25 681.5,392.5C682.692,389.282 684.025,386.115 685.5,383C712.93,381.7 740.263,382.7 767.5,386C801.48,394.48 828.147,413.314 847.5,442.5Z" style="fill:rgb(252,253,253);"/>
        </g>
        <g>
            <path d="M485.5,114.5L500.5,114.5L500.5,165.5C484.991,165.627 469.991,168.461 455.5,174C406.779,194.203 379.112,230.37 372.5,282.5C371.504,296.657 371.171,310.99 371.5,325.5L378.5,325.5C397.618,329.116 409.952,340.283 415.5,359C419.045,359.571 422.378,358.904 425.5,357C428.968,355.03 432.301,352.864 435.5,350.5C427.257,342.757 420.757,333.757 416,323.5C404.928,292.367 409.261,263.7 429,237.5C460.934,202.531 499.434,192.698 544.5,208C589.23,228.238 608.564,262.738 602.5,311.5C600.039,319.02 596.872,326.354 593,333.5C588.729,339.608 583.896,345.274 578.5,350.5C582.833,353.333 587.167,356.167 591.5,359C594.099,359.769 596.599,359.602 599,358.5C605.59,337.632 619.756,326.465 641.5,325C650.643,266.19 630.977,220.023 582.5,186.5C561.825,173.327 539.159,166.327 514.5,165.5L514.5,114.5C566.689,115.131 616.356,126.631 663.5,149C756.057,193.223 824.223,261.723 868,354.5C889.905,402.118 901.405,452.118 902.5,504.5L868.5,504.5C867.685,481.581 860.685,460.914 847.5,442.5C828.147,413.314 801.48,394.48 767.5,386C740.263,382.7 712.93,381.7 685.5,383C684.025,386.115 682.692,389.282 681.5,392.5C678.108,397.401 674.108,401.901 669.5,406C664.179,409.109 658.512,411.442 652.5,413C654.041,414.579 655.208,416.413 656,418.5C670.421,419.49 684.921,419.824 699.5,419.5C713.504,419.333 727.504,419.5 741.5,420C749.25,420.869 756.917,422.202 764.5,424C812.19,441.53 834.024,475.697 830,526.5C819.296,572.858 790.129,598.358 742.5,603C724.836,603.5 707.17,603.667 689.5,603.5C678.48,603.168 667.48,603.501 656.5,604.5C655.365,606.799 654.032,608.966 652.5,611C669.317,614.317 680.317,624.15 685.5,640.5C710.16,641.666 734.827,641.833 759.5,641C803.311,634.516 835.477,611.683 856,572.5C863.913,555.68 868.413,538.013 869.5,519.5L902.5,519.5C902.161,535.59 900.828,551.59 898.5,567.5C897.582,574.363 896.249,581.03 894.5,587.5L894.5,575.5L887.5,575.5L887.5,583.5L879.5,583.5C879.599,580.763 879.265,578.096 878.5,575.5C878.66,573.801 878.494,572.134 878,570.5C865.77,600.061 846.27,623.561 819.5,641C820.793,641.49 822.127,641.657 823.5,641.5C823.511,643.017 824.177,644.184 825.5,645C822.649,646.881 822.982,647.715 826.5,647.5C829.187,647.462 829.854,646.462 828.5,644.5C834.987,643.688 841.487,643.022 848,642.5C851.012,642.726 853.845,643.559 856.5,645C854.236,645.236 852.069,645.736 850,646.5C843.556,645.19 837.056,645.19 830.5,646.5C832.045,647.452 833.712,647.785 835.5,647.5C835.665,650.518 835.498,653.518 835,656.5C831.982,656.981 829.148,657.981 826.5,659.5C824.609,657.984 822.609,656.65 820.5,655.5C817.142,656.042 813.809,657.376 810.5,659.5C808.609,657.984 806.609,656.65 804.5,655.5C802.954,656.684 801.287,657.684 799.5,658.5C783.51,659.333 767.51,659.833 751.5,660C785.003,660.168 818.336,660.668 851.5,661.5C796.496,661.167 741.496,661.5 686.5,662.5C683.403,676.919 675.403,687.586 662.5,694.5C661.667,711.49 661.167,728.49 661,745.5C653.466,806.686 620.966,848.186 563.5,870C553.69,873.12 543.69,875.286 533.5,876.5L533.5,892.5C639.206,883.235 726.039,838.235 794,757.5C803.764,744.944 813.264,732.278 822.5,719.5C822.33,720.822 822.663,721.989 823.5,723C820.894,723.45 819.561,724.95 819.5,727.5C823.24,727.241 826.906,727.574 830.5,728.5C832.27,729.82 832.603,731.32 831.5,733C832.373,734.045 833.373,734.878 834.5,735.5C757.628,847.17 650.962,906.17 514.5,912.5L514.5,859.5C528.575,858.898 542.241,856.231 555.5,851.5C607.925,832.018 636.759,794.351 642,738.5C642.5,725.171 642.667,711.837 642.5,698.5C626.465,698.235 613.965,691.569 605,678.5C602.012,673.031 599.512,667.365 597.5,661.5C591.009,664.578 584.675,667.912 578.5,671.5C583.603,677.257 588.27,683.257 592.5,689.5C610.328,730.191 603.662,766.358 572.5,798C540.506,822.498 505.506,827.831 467.5,814C428.008,794.533 409.508,762.7 412,718.5C414.385,705.174 419.218,692.84 426.5,681.5C429.601,678.165 432.601,674.665 435.5,671C429.195,667.014 422.528,663.847 415.5,661.5C414.498,667.84 412.498,673.84 409.5,679.5C399.862,691.653 387.195,697.986 371.5,698.5C371.271,715.855 371.771,733.189 373,750.5C385.448,807.283 419.948,842.783 476.5,857C484.422,858.632 492.422,859.465 500.5,859.5L500.5,912.5C419.838,910.834 346.838,886.834 281.5,840.5C280.498,838.989 279.831,837.322 279.5,835.5C275.42,834.756 272.087,832.756 269.5,829.5C269.808,828.692 270.308,828.025 271,827.5C271.499,823.514 271.666,819.514 271.5,815.5C273.858,815.747 275.858,815.081 277.5,813.5C337.173,859.627 404.84,885.96 480.5,892.5L480.5,876.5C429.963,869.16 392.463,843.16 368,798.5C359.141,781.586 354.141,763.586 353,744.5C352.667,727.833 352.333,711.167 352,694.5C350.22,693.361 348.386,692.361 346.5,691.5C336.62,684.263 330.287,674.596 327.5,662.5C272.504,661.5 217.504,661.167 162.5,661.5C159.933,662.475 157.267,663.142 154.5,663.5C155.363,669.455 155.697,675.455 155.5,681.5C154.022,681.762 152.689,681.429 151.5,680.5C151.121,678.787 150.121,677.787 148.5,677.5L148.5,676.5C148.669,674.088 148.003,671.921 146.5,670C147.419,665.219 147.752,660.385 147.5,655.5L143.5,655.5C143.685,650.093 144.019,644.927 144.5,640C142.866,639.506 141.199,639.34 139.5,639.5L139.5,633.5C138.127,633.657 136.793,633.49 135.5,633C133.983,630.796 132.65,628.462 131.5,626C133.632,624.303 134.965,622.136 135.5,619.5C138.187,619.336 140.854,619.503 143.5,620C146.481,623.202 148.815,626.702 150.5,630.5C152.029,633.754 153.362,637.087 154.5,640.5C167.66,641.66 180.994,641.827 194.5,641C193.956,640.283 193.289,639.783 192.5,639.5C166.628,622.125 147.461,599.125 135,570.5C138.044,585.544 141.544,600.544 145.5,615.5C145.279,618.097 144.779,618.097 144,615.5C142.777,617.985 141.277,618.152 139.5,616C136.854,615.503 134.187,615.336 131.5,615.5L131.5,603.5C128.212,603.016 125.545,604.016 123.5,606.5C116.937,577.878 112.937,548.878 111.5,519.5L144.5,519.5C145.001,535.839 148.501,551.506 155,566.5C168.374,595.706 189.54,617.04 218.5,630.5C229.011,636.279 240.344,639.779 252.5,641C278.165,641.5 303.831,641.667 329.5,641.5C334.892,625.275 345.892,615.108 362.5,611C360.833,608.667 359.167,606.333 357.5,604C342.837,603.5 328.17,603.333 313.5,603.5C297.163,603.667 280.83,603.5 264.5,603C237.833,599.755 216.333,587.589 200,566.5C179.27,534.612 177.27,501.612 194,467.5C209.292,441.753 231.792,426.253 261.5,421C277.801,419.651 294.134,419.151 310.5,419.5C326.17,419.667 341.837,419.5 357.5,419C358.708,416.75 360.041,414.583 361.5,412.5C346.002,409.103 335.336,400.103 329.5,385.5L329.5,382.5C307.497,382.333 285.497,382.5 263.5,383C241.805,384.753 221.805,391.42 203.5,403C168.752,427.988 149.085,461.822 144.5,504.5L112.5,504.5L112.5,490.5C118.457,409.771 145.957,337.438 195,273.5C256.159,192.979 336.326,141.812 435.5,120C452.027,116.851 468.694,115.017 485.5,114.5Z" style="fill:rgb(3,28,49);"/>
        </g>
        <g>
            <path d="M751.5,441.5C760.345,442.555 768.345,445.555 775.5,450.5C778.311,455.83 782.145,460.497 787,464.5C794.02,476.206 799.686,488.54 804,501.5C803.39,541.752 783.557,565.918 744.5,574C721.502,574.5 698.502,574.667 675.5,574.5L675.5,583.5C671.486,583.666 667.486,583.499 663.5,583C677.446,549.363 681.279,514.529 675,478.5C672.545,465.665 668.712,453.331 663.5,441.5C692.677,440.229 722.01,440.229 751.5,441.5Z" style="fill:rgb(252,253,253);"/>
        </g>
        <g>
            <path d="M340.5,471.5C339.542,471.953 338.708,472.619 338,473.5C334.884,479.612 332.217,485.946 330,492.5C330.612,513.911 323.445,532.078 308.5,547C294.283,558.949 277.949,562.949 259.5,559C256.15,558.75 252.983,557.917 250,556.5C248.975,561.268 247.642,565.934 246,570.5C245.333,571.167 244.667,571.833 244,572.5C241.379,572.296 238.545,572.296 235.5,572.5C207.553,552.909 197.053,526.243 204,492.5C213.517,463.316 233.351,445.816 263.5,440C292.831,439.5 322.165,439.333 351.5,439.5C347.035,449.895 343.369,460.561 340.5,471.5Z" style="fill:rgb(251,252,252);"/>
        </g>
        <g>
            <path d="M751.5,441.5C722.01,440.229 692.677,440.229 663.5,441.5C662.957,441.44 662.624,441.107 662.5,440.5C690.161,439.333 717.827,439.167 745.5,440C747.708,440.191 749.708,440.691 751.5,441.5Z" style="fill:rgb(182,189,197);"/>
        </g>
        <g>
            <path d="M329.5,385.5C335.336,400.103 346.002,409.103 361.5,412.5C360.041,414.583 358.708,416.75 357.5,419C341.837,419.5 326.17,419.667 310.5,419.5C310.057,413.328 311.557,407.662 315,402.5C319.376,396.303 324.209,390.636 329.5,385.5Z" style="fill:rgb(207,222,229);"/>
        </g>
        <g>
            <path d="M681.5,392.5C685.428,396.25 689.595,399.917 694,403.5C697.267,408.362 699.101,413.695 699.5,419.5C684.921,419.824 670.421,419.49 656,418.5C655.208,416.413 654.041,414.579 652.5,413C658.512,411.442 664.179,409.109 669.5,406C674.108,401.901 678.108,397.401 681.5,392.5Z" style="fill:rgb(207,221,230);"/>
        </g>
        <g>
            <path d="M154.5,384.5C167.677,384.171 180.677,384.505 193.5,385.5C166.375,404.127 146.875,428.793 135,459.5C138.73,433.806 145.23,408.806 154.5,384.5Z" style="fill:rgb(117,161,186);"/>
        </g>
        <g>
            <path d="M816.5,384.5C830.672,383.174 845.006,383.174 859.5,384.5C869.302,408.71 875.802,433.71 879,459.5C866.663,427.337 845.829,402.337 816.5,384.5Z" style="fill:rgb(115,159,184);"/>
        </g>
        <g>
            <path d="M661.5,354.5C670.303,366.948 668.97,378.448 657.5,389C645.504,396.104 634.837,394.604 625.5,384.5C646.918,385.746 658.918,375.746 661.5,354.5Z" style="fill:rgb(207,223,229);"/>
        </g>
        <g>
            <path d="M154.5,384.5C167.673,383.175 181.006,383.175 194.5,384.5C194.376,385.107 194.043,385.44 193.5,385.5C180.677,384.505 167.677,384.171 154.5,384.5Z" style="fill:rgb(68,107,130);"/>
        </g>
        <g>
            <path d="M390.5,353.5C399.6,368.849 396.6,381.349 381.5,391C369.569,395.851 359.569,393.351 351.5,383.5C370.314,386.291 383.147,378.958 390,361.5C390.497,358.854 390.664,356.187 390.5,353.5Z" style="fill:rgb(205,220,230);"/>
        </g>
        <g>
            <path d="M496.5,354.5C564.944,354.796 614.444,385.463 645,446.5C667.719,501.741 662.385,554.075 629,603.5C589.938,654.106 538.771,674.273 475.5,664C413.649,646.149 374.816,605.982 359,543.5C348.397,470.886 373.564,414.386 434.5,374C453.946,363.147 474.613,356.647 496.5,354.5Z" style="fill:rgb(249,251,251);"/>
        </g>
        <g>
            <path d="M496.5,451.5C533.135,449.323 555.635,465.99 564,501.5C566.461,537.682 550.294,560.516 515.5,570C480.339,571.319 458.506,554.819 450,520.5C446.747,494.856 455.58,474.689 476.5,460C482.893,456.266 489.56,453.433 496.5,451.5Z" style="fill:rgb(4,29,50);"/>
        </g>
        <g>
            <path d="M510.5,458.5C509.506,468.319 509.173,478.319 509.5,488.5C508.341,478.008 508.175,467.341 509,456.5C509.717,457.044 510.217,457.711 510.5,458.5Z" style="fill:rgb(45,76,100);"/>
        </g>
        <g>
            <path d="M510.5,458.5C522.201,475.546 533.534,492.879 544.5,510.5C534.667,529.512 523.334,547.512 510.5,564.5C509.334,553.515 509.168,542.515 510,531.5C515.295,524.404 520.461,517.238 525.5,510C519.554,503.23 514.221,496.064 509.5,488.5C509.173,478.319 509.506,468.319 510.5,458.5Z" style="fill:rgb(114,159,183);"/>
        </g>
        <g>
            <path d="M503.5,458.5C504.659,469.326 504.826,480.326 504,491.5C498.266,497.398 493.099,503.731 488.5,510.5C493.908,516.986 499.075,523.653 504,530.5C504.667,541.833 504.667,553.167 504,564.5C491.378,547.432 479.878,529.599 469.5,511C480.295,493.061 491.628,475.561 503.5,458.5Z" style="fill:rgb(249,251,251);"/>
        </g>
        <g>
            <path d="M644.5,499.5L644.5,504.5L590.5,504.5C589.665,486.671 583.665,470.838 572.5,457C585.289,444.554 597.955,432.054 610.5,419.5C630.573,442.367 641.906,469.033 644.5,499.5Z" style="fill:rgb(3,29,50);"/>
        </g>
        <g>
            <path d="M608.5,450.5C610.433,451.642 611.933,453.308 613,455.5C618.169,464.51 621.336,474.177 622.5,484.5L609.5,484.5C608.52,474.863 605.52,465.863 600.5,457.5C603.198,455.159 605.865,452.826 608.5,450.5Z" style="fill:rgb(112,157,182);"/>
        </g>
        <g>
            <path d="M423.5,504.5L370.5,504.5L370.5,499.5C373.287,468.777 384.62,441.777 404.5,418.5C416.719,431.219 429.053,443.719 441.5,456C436.61,464.278 432.11,472.778 428,481.5C425.664,489.012 424.164,496.678 423.5,504.5Z" style="fill:rgb(3,29,50);"/>
        </g>
        <g>
            <path d="M404.5,450.5C408.465,451.825 411.799,454.159 414.5,457.5C409.284,465.814 406.284,474.814 405.5,484.5C400.821,484.666 396.155,484.499 391.5,484C394.293,472.245 398.627,461.078 404.5,450.5Z" style="fill:rgb(112,156,179);"/>
        </g>
        <g>
            <path d="M493.5,369.5L500.5,369.5L500.5,425.5C482.358,427.244 466.358,433.91 452.5,445.5C439.394,433.896 426.728,421.73 414.5,409C427.339,395.194 442.673,384.861 460.5,378C471.333,374.073 482.333,371.24 493.5,369.5Z" style="fill:rgb(2,28,49);"/>
        </g>
        <g>
            <path d="M477.5,392.5L480.5,392.5L480.5,407.5C470.789,408.849 461.789,412.182 453.5,417.5C450.312,415.146 447.645,412.312 445.5,409C447.809,406.513 450.476,404.513 453.5,403C461.483,399.169 469.483,395.669 477.5,392.5Z" style="fill:rgb(107,156,176);"/>
        </g>
        <g>
            <path d="M514.5,369.5C548.213,371.695 576.88,384.695 600.5,408.5C588.167,421.5 575.5,434.167 562.5,446.5C548.708,434.608 532.708,427.608 514.5,425.5L514.5,369.5Z" style="fill:rgb(2,29,50);"/>
        </g>
        <g>
            <path d="M533.5,392.5C545.393,395.615 556.393,400.615 566.5,407.5C567.583,408.365 567.749,409.365 567,410.5C565.357,412.977 563.524,415.31 561.5,417.5C552.89,412.853 543.89,409.186 534.5,406.5C533.507,401.88 533.173,397.214 533.5,392.5Z" style="fill:rgb(112,157,179);"/>
        </g>
        <g>
            <path d="M469.5,133.5L481.5,133.5L481.5,147.5C428.134,156.048 389.3,184.382 365,232.5C358.348,246.791 354.348,261.791 353,277.5C352.667,294.5 352.333,311.5 352,328.5C338.768,336.448 330.268,347.948 326.5,363C272.167,363.667 217.833,363.667 163.5,363C199.544,286.621 253.544,226.288 325.5,182C370.467,156.511 418.467,140.345 469.5,133.5Z" style="fill:rgb(234,243,248);"/>
        </g>
        <g>
            <path d="M661.5,354.5C658.918,375.746 646.918,385.746 625.5,384.5C620.464,380.422 618.131,375.089 618.5,368.5C620.376,350.469 630.376,342.636 648.5,345C654.117,346.456 658.45,349.622 661.5,354.5Z" style="fill:rgb(252,253,253);"/>
        </g>
        <g>
            <path d="M390.5,353.5C390.664,356.187 390.497,358.854 390,361.5C383.147,378.958 370.314,386.291 351.5,383.5C342.566,366.752 346.566,353.918 363.5,345C374.326,342.109 383.326,344.942 390.5,353.5Z" style="fill:rgb(250,251,251);"/>
        </g>
        <g>
            <path d="M310.5,315.5C314.634,314.515 318.968,314.182 323.5,314.5C323.818,319.032 323.485,323.366 322.5,327.5L322.5,315.5L310.5,315.5Z" style="fill:rgb(139,159,175);"/>
        </g>
        <g>
            <path d="M218.5,301.5C227.891,302.81 229.891,307.31 224.5,315C217.325,316.48 213.825,313.647 214,306.5C215.025,304.313 216.525,302.646 218.5,301.5Z" style="fill:rgb(8,30,49);"/>
        </g>
        <g>
            <path d="M322.5,297.5C323.461,299.265 323.795,301.265 323.5,303.5C318.968,303.818 314.634,303.485 310.5,302.5L322.5,302.5L322.5,297.5Z" style="fill:rgb(140,159,171);"/>
        </g>
        <g>
            <path d="M573.5,262.5C586.188,277.807 588.688,294.807 581,313.5C575.985,325.851 567.151,334.017 554.5,338C540.787,338.096 527.121,337.262 513.5,335.5C513.93,325.042 517.93,316.208 525.5,309C529.619,305.607 534.286,303.274 539.5,302C547.773,300.67 556.107,300.17 564.5,300.5L564.5,286.5C570.623,287.125 573.956,284.458 574.5,278.5C575.933,273.064 575.6,267.731 573.5,262.5Z" style="fill:rgb(119,162,186);"/>
        </g>
        <g>
            <path d="M372.5,282.5L372.5,324.5C374.735,324.205 376.735,324.539 378.5,325.5L371.5,325.5C371.171,310.99 371.504,296.657 372.5,282.5Z" style="fill:rgb(187,195,202);"/>
        </g>
        <g>
            <path d="M582.5,186.5C630.977,220.023 650.643,266.19 641.5,325C619.756,326.465 605.59,337.632 599,358.5C596.599,359.602 594.099,359.769 591.5,359C587.167,356.167 582.833,353.333 578.5,350.5C583.896,345.274 588.729,339.608 593,333.5C596.872,326.354 600.039,319.02 602.5,311.5C602.369,312.376 602.702,313.043 603.5,313.5C616.815,302.857 623.148,288.857 622.5,271.5C621.085,244.696 611.919,221.029 595,200.5C590.232,196.24 586.066,191.573 582.5,186.5Z" style="fill:rgb(207,222,229);"/>
        </g>
        <g>
            <path d="M561.5,255.5C566.085,256.794 570.085,259.127 573.5,262.5C575.6,267.731 575.933,273.064 574.5,278.5C573.584,278.982 572.584,279.315 571.5,279.5C562.797,276.241 553.797,274.408 544.5,274C540.89,265.862 543.224,259.862 551.5,256C554.817,255.502 558.15,255.335 561.5,255.5Z" style="fill:rgb(251,253,253);"/>
        </g>
        <g>
            <path d="M344.5,237.5C344.66,235.801 344.494,234.134 344,232.5C341.875,231.255 339.875,230.255 338,229.5C335.976,229.8 335.476,230.633 336.5,232C335.929,233.205 335.262,234.372 334.5,235.5C333.796,233.899 332.629,232.565 331,231.5C330.768,232.737 330.268,233.737 329.5,234.5C327.001,231.831 324.668,228.998 322.5,226C321.5,225.333 320.5,225.333 319.5,226C301.246,236.92 286.246,251.254 274.5,269C277.312,272.789 279.479,276.956 281,281.5C282.741,290.217 280.074,297.217 273,302.5C273.186,308.851 270.02,311.685 263.5,311C258.015,320.299 251.848,320.799 245,312.5C244.149,308.958 244.649,305.625 246.5,302.5C234.999,289.523 235.999,277.69 249.5,267C252.898,265.084 256.565,264.084 260.5,264C273.124,245.043 288.79,229.043 307.5,216C324.833,204.667 342.167,193.333 359.5,182C364.776,178.151 370.276,177.651 376,180.5C377.457,183.366 377.79,186.366 377,189.5C362.078,198.042 347.578,207.209 333.5,217C338,220.167 341.833,224 345,228.5C345.805,231.696 345.638,234.696 344.5,237.5Z" style="fill:rgb(3,28,48);"/>
        </g>
        <g>
            <path d="M561.5,255.5C558.15,255.335 554.817,255.502 551.5,256C543.224,259.862 540.89,265.862 544.5,274C553.797,274.408 562.797,276.241 571.5,279.5C572.584,279.315 573.584,278.982 574.5,278.5C573.956,284.458 570.623,287.125 564.5,286.5L449.5,286.5C467.993,285.503 486.659,285.17 505.5,285.5C505.5,264.493 505.834,243.493 506.5,222.5C502.481,222.646 498.481,222.979 494.5,223.5C495.263,222.732 496.263,222.232 497.5,222C506.895,220.445 514.728,223.278 521,230.5C525.008,235.682 528.174,241.349 530.5,247.5C537.448,243.791 544.448,243.624 551.5,247C553.167,249.333 554.833,251.667 556.5,254C558.382,254.198 560.048,254.698 561.5,255.5Z" style="fill:rgb(205,221,229);"/>
        </g>
        <g>
            <path d="M344.5,237.5C339.556,253.224 335.889,269.224 333.5,285.5C335.534,289.239 336.701,293.239 337,297.5C337.667,309.167 337.667,320.833 337,332.5C334.608,338.226 330.774,342.726 325.5,346C282.879,347.645 240.213,347.978 197.5,347C193.708,344.947 192.542,341.781 194,337.5C194.5,335.667 195.667,334.5 197.5,334C237.167,333.667 276.833,333.333 316.5,333C319.641,332.285 321.641,330.452 322.5,327.5C323.485,323.366 323.818,319.032 323.5,314.5C318.968,314.182 314.634,314.515 310.5,315.5C303.126,319.475 298.459,317.475 296.5,309.5C296.833,304.5 299.5,301.833 304.5,301.5C306.512,301.84 308.512,302.173 310.5,302.5C314.634,303.485 318.968,303.818 323.5,303.5C323.795,301.265 323.461,299.265 322.5,297.5C322.056,292.612 319.389,289.945 314.5,289.5C306.415,293.453 300.749,291.286 297.5,283C297.969,279.196 299.969,276.529 303.5,275C307.291,274.409 310.958,274.909 314.5,276.5C316.383,276.124 317.883,275.124 319,273.5C323.221,260.675 326.721,247.675 329.5,234.5C330.268,233.737 330.768,232.737 331,231.5C332.629,232.565 333.796,233.899 334.5,235.5C335.262,234.372 335.929,233.205 336.5,232C335.476,230.633 335.976,229.8 338,229.5C339.875,230.255 341.875,231.255 344,232.5C344.494,234.134 344.66,235.801 344.5,237.5Z" style="fill:rgb(5,30,51);"/>
        </g>
        <g>
            <path d="M449.5,286.5L449.5,300.5C462.655,299.356 474.989,301.856 486.5,308C495.564,314.962 500.231,324.128 500.5,335.5C488.775,336.257 477.108,337.591 465.5,339.5C450.814,336.33 439.981,327.997 433,314.5C422.917,289.082 429.417,269.249 452.5,255C459.337,252.303 466.337,251.803 473.5,253.5C474.33,239.029 481.33,229.029 494.5,223.5C498.481,222.979 502.481,222.646 506.5,222.5C505.834,243.493 505.5,264.493 505.5,285.5C486.659,285.17 467.993,285.503 449.5,286.5Z" style="fill:rgb(252,252,253);"/>
        </g>
        <g>
            <path d="M396.5,158.5C405.829,158.818 408.495,163.151 404.5,171.5C396.041,174.198 392.208,171.198 393,162.5C394.376,161.295 395.542,159.962 396.5,158.5Z" style="fill:rgb(5,25,47);"/>
        </g>
        <g>
            <path d="M532.5,133.5C573.362,136.396 612.362,146.563 649.5,164C700.626,186.118 744.793,217.952 782,259.5C809.809,290.429 832.642,324.762 850.5,362.5C795.837,363.5 741.171,363.833 686.5,363.5C684.276,347.733 676.109,336.066 662,328.5C661.667,312.167 661.333,295.833 661,279.5C652.808,218.974 620.308,177.474 563.5,155C553.352,151.539 543.019,149.039 532.5,147.5L532.5,133.5Z" style="fill:rgb(117,161,186);"/>
        </g>
        <g>
            <path d="M789.5,302.5C799.191,301.428 802.191,305.261 798.5,314C792.182,317.207 787.848,315.54 785.5,309C786.25,306.429 787.583,304.262 789.5,302.5Z" style="fill:rgb(2,30,55);"/>
        </g>
        <g>
            <path d="M641.5,178.5C643.527,178.338 645.527,178.505 647.5,179C671.375,193.547 694.708,208.881 717.5,225C730.762,236.092 742.428,248.592 752.5,262.5C772.644,266.799 779.144,278.466 772,297.5C770.315,299.017 768.815,300.684 767.5,302.5C771.206,311.183 768.373,316.517 759,318.5C754.343,317.674 751.51,315.007 750.5,310.5C744.466,311.233 741.299,308.567 741,302.5C733.895,296.427 731.228,288.761 733,279.5C735.196,275.388 737.196,271.388 739,267.5C728.791,252.957 716.291,240.79 701.5,231C698.6,229.258 695.6,227.758 692.5,226.5C688.529,228.471 685.529,231.471 683.5,235.5C686.936,247.844 690.436,260.177 694,272.5C694.465,273.931 695.299,275.097 696.5,276C700.056,276.685 703.389,276.185 706.5,274.5C714.21,275.044 717.043,279.044 715,286.5C713.833,287.667 712.667,288.833 711.5,290C707.304,290.664 703.138,290.497 699,289.5C692.435,291.278 689.935,295.611 691.5,302.5C700.188,302.368 708.855,302.202 717.5,302C722.817,304.452 724.317,308.285 722,313.5C718.296,318.137 714.129,318.637 709.5,315C703.509,314.501 697.509,314.334 691.5,314.5C691.334,319.179 691.501,323.845 692,328.5C693.543,330.378 695.376,331.878 697.5,333C737.167,333.333 776.833,333.667 816.5,334C823.167,338.333 823.167,342.667 816.5,347C774.5,347.667 732.5,347.667 690.5,347C683.851,343.686 679.351,338.519 677,331.5C676.333,318.833 676.333,306.167 677,293.5C679.565,286.351 679.898,279.018 678,271.5C674.887,258.214 671.387,245.048 667.5,232C667.615,229.268 668.448,226.768 670,224.5C672.9,221.6 675.733,218.767 678.5,216C666.527,207.34 653.861,199.673 640.5,193C634.954,187.676 635.288,182.843 641.5,178.5Z" style="fill:rgb(2,29,50);"/>
        </g>
        <g>
            <path d="M611.5,159.5C622.262,158.739 624.929,162.905 619.5,172C615.22,174.477 611.72,173.644 609,169.5C608.024,165.673 608.857,162.34 611.5,159.5Z" style="fill:rgb(2,28,53);"/>
        </g>
        <g>
            <path d="M268.5,464.5C271.016,464.755 273.35,465.589 275.5,467C281.868,471.516 288.534,475.516 295.5,479C302.792,485.101 307.959,492.601 311,501.5C313.899,518.522 308.399,532.022 294.5,542C271.48,552.207 253.313,546.707 240,525.5C236.945,516.419 235.779,507.086 236.5,497.5C242.88,497.393 249.213,497.893 255.5,499C254.841,505.997 256.008,512.831 259,519.5C266.004,527.931 274.504,529.765 284.5,525C294.185,516.215 294.852,506.882 286.5,497C281.087,493.181 275.253,492.014 269,493.5C268.5,483.839 268.334,474.172 268.5,464.5Z" style="fill:rgb(4,29,49);"/>
        </g>
        <g>
            <path d="M775.5,450.5C794.23,460.758 806.064,476.425 811,497.5C815.065,534.876 800.232,561.709 766.5,578C760.584,579.979 754.584,581.646 748.5,583C724.169,583.5 699.836,583.667 675.5,583.5L675.5,574.5C698.502,574.667 721.502,574.5 744.5,574C783.557,565.918 803.39,541.752 804,501.5C799.686,488.54 794.02,476.206 787,464.5C782.145,460.497 778.311,455.83 775.5,450.5Z" style="fill:rgb(209,224,231);"/>
        </g>
        <g>
            <path d="M736.5,466.5C747.504,467.183 751.671,472.85 749,483.5C747.159,486.178 744.659,487.845 741.5,488.5C740.534,490.396 740.201,492.396 740.5,494.5C749.584,495.582 755.25,500.582 757.5,509.5C762.039,511.375 765.372,510.208 767.5,506C777.39,500.272 784.057,502.938 787.5,514C786.859,521.64 782.693,525.473 775,525.5C769.544,524.884 766.044,521.884 764.5,516.5C762.235,515.353 759.902,515.186 757.5,516C755.627,524.706 750.293,529.873 741.5,531.5C740.359,533.421 740.192,535.421 741,537.5C750.385,541.265 752.718,547.598 748,556.5C739.235,563.041 732.568,561.375 728,551.5C727.205,544.765 730.039,540.098 736.5,537.5C737.466,535.604 737.799,533.604 737.5,531.5C727.904,530.235 722.237,524.902 720.5,515.5L712.5,515.5C710.105,524.698 704.438,527.531 695.5,524C689.362,517.919 689.029,511.586 694.5,505C701.986,501.161 707.986,502.827 712.5,510C715.146,510.497 717.813,510.664 720.5,510.5C721.764,501.236 727.097,495.903 736.5,494.5C736.662,492.473 736.495,490.473 736,488.5C724.542,480.91 724.709,473.577 736.5,466.5Z" style="fill:rgb(7,30,50);"/>
        </g>
        <g>
            <path d="M340.5,471.5C332.725,509.811 336.392,546.977 351.5,583C322.167,583.667 292.833,583.667 263.5,583C253.229,581.746 243.896,578.246 235.5,572.5C238.545,572.296 241.379,572.296 244,572.5C244.667,571.833 245.333,571.167 246,570.5C247.642,565.934 248.975,561.268 250,556.5C252.983,557.917 256.15,558.75 259.5,559C277.949,562.949 294.283,558.949 308.5,547C323.445,532.078 330.612,513.911 330,492.5C332.217,485.946 334.884,479.612 338,473.5C338.708,472.619 339.542,471.953 340.5,471.5Z" style="fill:rgb(207,221,230);"/>
        </g>
        <g>
            <path d="M506.5,495.5C510.891,499.94 514.558,504.94 517.5,510.5C514.625,516.215 511.125,521.548 507,526.5C503.237,521.299 499.737,515.966 496.5,510.5C499.824,505.507 503.157,500.507 506.5,495.5Z" style="fill:rgb(245,248,249);"/>
        </g>
        <g>
            <path d="M112.5,490.5L112.5,504.5L144.5,504.5C133.679,505.495 122.679,505.828 111.5,505.5C111.179,500.305 111.513,495.305 112.5,490.5Z" style="fill:rgb(139,152,161);"/>
        </g>
        <g>
            <path d="M370.5,499.5L370.5,504.5L423.5,504.5C405.674,505.497 387.674,505.83 369.5,505.5C369.205,503.265 369.539,501.265 370.5,499.5Z" style="fill:rgb(130,143,155);"/>
        </g>
        <g>
            <path d="M644.5,499.5C645.461,501.265 645.795,503.265 645.5,505.5C626.992,505.83 608.659,505.497 590.5,504.5L644.5,504.5L644.5,499.5Z" style="fill:rgb(125,139,152);"/>
        </g>
        <g>
            <path d="M901.5,505.5C901.042,508.394 901.709,510.894 903.5,513C903.492,521.746 903.325,530.913 903,540.5C902.307,547.85 901.474,555.183 900.5,562.5C900.444,564.64 899.777,566.306 898.5,567.5C900.828,551.59 902.161,535.59 902.5,519.5C891.679,518.505 880.679,518.172 869.5,518.5L869.5,505.5L901.5,505.5Z" style="fill:rgb(250,250,245);"/>
        </g>
        <g>
            <path d="M735.5,506.5C744.968,506.285 747.301,510.118 742.5,518C736.723,520.611 733.39,518.778 732.5,512.5C732.628,510.045 733.628,508.045 735.5,506.5Z" style="fill:rgb(238,242,244);"/>
        </g>
        <g>
            <path d="M423.5,519.5L370.5,519.5L370.5,522.5C369.566,521.432 369.232,520.099 369.5,518.5C387.674,518.17 405.674,518.503 423.5,519.5Z" style="fill:rgb(188,195,201);"/>
        </g>
        <g>
            <path d="M423.5,519.5C425.341,537.031 431.674,552.697 442.5,566.5C429.86,578.806 417.193,591.139 404.5,603.5C390.603,588.705 381.103,571.371 376,551.5C373.303,541.986 371.47,532.319 370.5,522.5L370.5,519.5L423.5,519.5Z" style="fill:rgb(2,29,49);"/>
        </g>
        <g>
            <path d="M590.5,519.5L644.5,519.5C641.988,551.727 630.321,580.06 609.5,604.5C596.681,592.181 584.014,579.681 571.5,567C582.968,553.229 589.302,537.396 590.5,519.5Z" style="fill:rgb(3,29,50);"/>
        </g>
        <g>
            <path d="M609.5,539.5L621.5,539.5C620.124,552.297 615.791,563.964 608.5,574.5C605.28,572.397 602.28,570.064 599.5,567.5C604.543,558.754 607.876,549.421 609.5,539.5Z" style="fill:rgb(114,160,181);"/>
        </g>
        <g>
            <path d="M392.5,539.5L405.5,539.5C406.618,549.247 409.618,558.414 414.5,567C412.285,569.871 409.451,572.037 406,573.5C398.862,563.261 394.362,551.928 392.5,539.5Z" style="fill:rgb(113,156,179);"/>
        </g>
        <g>
            <path d="M878.5,575.5C879.265,578.096 879.599,580.763 879.5,583.5L887.5,583.5L887.5,575.5L894.5,575.5L894.5,587.5C883.871,640.741 863.871,690.075 834.5,735.5C833.373,734.878 832.373,734.045 831.5,733C832.603,731.32 832.27,729.82 830.5,728.5C826.906,727.574 823.24,727.241 819.5,727.5C819.561,724.95 820.894,723.45 823.5,723C822.663,721.989 822.33,720.822 822.5,719.5C822.733,717.938 823.4,716.605 824.5,715.5C831.532,704.773 837.532,693.44 842.5,681.5C846.013,675.135 849.013,668.468 851.5,661.5C818.336,660.668 785.003,660.168 751.5,660C767.51,659.833 783.51,659.333 799.5,658.5C801.287,657.684 802.954,656.684 804.5,655.5C806.609,656.65 808.609,657.984 810.5,659.5C813.809,657.376 817.142,656.042 820.5,655.5C822.609,656.65 824.609,657.984 826.5,659.5C829.148,657.981 831.982,656.981 835,656.5C835.498,653.518 835.665,650.518 835.5,647.5C833.712,647.785 832.045,647.452 830.5,646.5C837.056,645.19 843.556,645.19 850,646.5C852.069,645.736 854.236,645.236 856.5,645C853.845,643.559 851.012,642.726 848,642.5C841.487,643.022 834.987,643.688 828.5,644.5C829.854,646.462 829.187,647.462 826.5,647.5C822.982,647.715 822.649,646.881 825.5,645C824.177,644.184 823.511,643.017 823.5,641.5C835.518,641.832 847.518,641.499 859.5,640.5C867.701,619.245 874.035,597.578 878.5,575.5Z" style="fill:rgb(2,28,50);"/>
        </g>
        <g>
            <path d="M559.5,577.5C560.552,577.351 561.552,577.517 562.5,578C575.226,590.387 587.393,602.887 599,615.5C575.307,637.796 547.141,650.129 514.5,652.5L514.5,596.5C531.595,594.777 546.595,588.443 559.5,577.5Z" style="fill:rgb(2,28,49);"/>
        </g>
        <g>
            <path d="M878.5,575.5C874.035,597.578 867.701,619.245 859.5,640.5C847.518,641.499 835.518,641.832 823.5,641.5C822.127,641.657 820.793,641.49 819.5,641C846.27,623.561 865.77,600.061 878,570.5C878.494,572.134 878.66,573.801 878.5,575.5Z" style="fill:rgb(114,157,182);"/>
        </g>
        <g>
            <path d="M847.5,442.5C860.685,460.914 867.685,481.581 868.5,504.5L902.5,504.5C902.5,505.167 902.167,505.5 901.5,505.5L869.5,505.5L869.5,518.5C880.679,518.172 891.679,518.505 902.5,519.5L869.5,519.5C868.413,538.013 863.913,555.68 856,572.5C835.477,611.683 803.311,634.516 759.5,641C734.827,641.833 710.16,641.666 685.5,640.5C680.317,624.15 669.317,614.317 652.5,611C654.032,608.966 655.365,606.799 656.5,604.5C667.48,603.501 678.48,603.168 689.5,603.5C692.517,605.438 694.683,608.105 696,611.5C696.297,614.914 696.964,618.247 698,621.5C701.147,623.301 704.313,625.134 707.5,627C754.436,636.992 793.602,624.159 825,588.5C835.254,570.534 843.254,551.534 849,531.5C854.385,505.077 851.218,479.911 839.5,456C844.272,452.718 846.939,448.218 847.5,442.5Z" style="fill:rgb(208,223,231);"/>
        </g>
        <g>
            <path d="M313.5,603.5C328.17,603.333 342.837,603.5 357.5,604C359.167,606.333 360.833,608.667 362.5,611C345.892,615.108 334.892,625.275 329.5,641.5C303.831,641.667 278.165,641.5 252.5,641C240.344,639.779 229.011,636.279 218.5,630.5C229.466,631.599 240.466,631.765 251.5,631C264.778,629.742 278.111,629.075 291.5,629C305.925,626.666 313.258,618.166 313.5,603.5Z" style="fill:rgb(209,223,231);"/>
        </g>
        <g>
            <path d="M452.5,576.5C466.385,588.105 482.385,594.772 500.5,596.5L500.5,652.5C467.896,650.778 439.729,638.778 416,616.5C415.333,615.5 415.333,614.5 416,613.5C428.369,601.298 440.535,588.965 452.5,576.5Z" style="fill:rgb(2,28,49);"/>
        </g>
        <g>
            <path d="M560.5,606.5C564.718,608.206 567.218,611.206 568,615.5C557.725,622.65 546.559,627.983 534.5,631.5C533.507,626.88 533.173,622.214 533.5,617.5C543.327,615.75 552.327,612.083 560.5,606.5Z" style="fill:rgb(109,156,181);"/>
        </g>
        <g>
            <path d="M451.5,606.5C457.557,609.027 463.557,611.86 469.5,615C473.057,616.408 476.724,617.408 480.5,618C481.467,622.401 481.8,626.901 481.5,631.5C468.361,628.678 456.361,623.345 445.5,615.5C444.479,614.998 444.312,614.332 445,613.5C447.372,611.297 449.539,608.963 451.5,606.5Z" style="fill:rgb(111,152,176);"/>
        </g>
        <g>
            <path d="M192.5,639.5C180.011,640.495 167.344,640.829 154.5,640.5C153.362,637.087 152.029,633.754 150.5,630.5C149.003,625.341 147.336,620.341 145.5,615.5C141.544,600.544 138.044,585.544 135,570.5C147.461,599.125 166.628,622.125 192.5,639.5Z" style="fill:rgb(116,161,190);"/>
        </g>
        <g>
            <path d="M392.5,643.5C389.952,659.209 380.619,668.042 364.5,670C359.979,670.85 355.645,670.35 351.5,668.5C342.574,651.501 346.907,639.001 364.5,631C376.995,628.419 386.329,632.586 392.5,643.5Z" style="fill:rgb(251,252,253);"/>
        </g>
        <g>
            <path d="M661.5,639.5C661.437,644.754 660.27,649.754 658,654.5C649.574,667.624 637.741,672.291 622.5,668.5C614.052,651.213 618.719,638.713 636.5,631C646.762,628.586 655.096,631.42 661.5,639.5Z" style="fill:rgb(252,253,253);"/>
        </g>
        <g>
            <path d="M145.5,615.5C147.336,620.341 149.003,625.341 150.5,630.5C148.815,626.702 146.481,623.202 143.5,620C140.854,619.503 138.187,619.336 135.5,619.5C134.965,622.136 133.632,624.303 131.5,626C132.65,628.462 133.983,630.796 135.5,633C136.793,633.49 138.127,633.657 139.5,633.5L139.5,639.5C141.199,639.34 142.866,639.506 144.5,640C144.019,644.927 143.685,650.093 143.5,655.5L147.5,655.5C147.752,660.385 147.419,665.219 146.5,670C148.003,671.921 148.669,674.088 148.5,676.5C138.213,653.979 129.879,630.646 123.5,606.5C125.545,604.016 128.212,603.016 131.5,603.5L131.5,615.5C134.187,615.336 136.854,615.503 139.5,616C141.277,618.152 142.777,617.985 144,615.5C144.779,618.097 145.279,618.097 145.5,615.5Z" style="fill:rgb(4,30,46);"/>
        </g>
        <g>
            <path d="M192.5,639.5C193.289,639.783 193.956,640.283 194.5,641C180.994,641.827 167.66,641.66 154.5,640.5C167.344,640.829 180.011,640.495 192.5,639.5Z" style="fill:rgb(79,115,143);"/>
        </g>
        <g>
            <path d="M392.5,643.5C399.35,660.643 394.017,672.477 376.5,679C366.04,680.433 357.707,676.933 351.5,668.5C355.645,670.35 359.979,670.85 364.5,670C380.619,668.042 389.952,659.209 392.5,643.5Z" style="fill:rgb(207,222,228);"/>
        </g>
        <g>
            <path d="M162.5,661.5C217.504,661.167 272.504,661.5 327.5,662.5C330.287,674.596 336.62,684.263 346.5,691.5L338.5,691.5C338.83,708.009 338.496,724.342 337.5,740.5C337.667,724.497 337.5,708.497 337,692.5C334.215,687.381 330.382,683.214 325.5,680C282.893,678.35 240.226,678.016 197.5,679C194.317,680.018 192.984,682.185 193.5,685.5C193.667,686.833 193.833,688.167 194,689.5C195.045,690.373 195.878,691.373 196.5,692.5C193.85,692.958 193.35,693.958 195,695.5C195.497,698.146 195.664,700.813 195.5,703.5L191.5,703.5C191.781,699 190.114,698.167 186.5,701C184.845,702.444 184.178,704.278 184.5,706.5C175.855,692.21 168.522,677.21 162.5,661.5Z" style="fill:rgb(223,233,241);"/>
        </g>
        <g>
            <path d="M426.5,681.5C426.034,679.799 426.034,678.299 426.5,677C420.593,676.562 414.927,677.395 409.5,679.5C412.498,673.84 414.498,667.84 415.5,661.5C422.528,663.847 429.195,667.014 435.5,671C432.601,674.665 429.601,678.165 426.5,681.5Z" style="fill:rgb(216,229,235);"/>
        </g>
        <g>
            <path d="M661.5,639.5C670.643,652.7 668.977,664.534 656.5,675C643.354,682.341 632.021,680.174 622.5,668.5C637.741,672.291 649.574,667.624 658,654.5C660.27,649.754 661.437,644.754 661.5,639.5Z" style="fill:rgb(206,221,228);"/>
        </g>
        <g>
            <path d="M426.5,681.5C419.218,692.84 414.385,705.174 412,718.5C409.508,762.7 428.008,794.533 467.5,814C505.506,827.831 540.506,822.498 572.5,798C603.662,766.358 610.328,730.191 592.5,689.5C614.131,697.569 625.131,713.569 625.5,737.5C620.5,785.642 597.5,822.809 556.5,849C555.748,849.671 555.414,850.504 555.5,851.5C542.241,856.231 528.575,858.898 514.5,859.5L514.5,912.5C513.761,894.988 512.928,877.321 512,859.5C509.115,861.885 506.115,861.885 503,859.5C502.667,860.5 502.333,861.5 502,862.5C501.832,879.338 501.332,896.005 500.5,912.5L500.5,859.5C492.422,859.465 484.422,858.632 476.5,857C419.948,842.783 385.448,807.283 373,750.5C371.771,733.189 371.271,715.855 371.5,698.5C387.195,697.986 399.862,691.653 409.5,679.5C414.927,677.395 420.593,676.562 426.5,677C426.034,678.299 426.034,679.799 426.5,681.5Z" style="fill:rgb(252,252,253);"/>
        </g>
        <g>
            <path d="M842.5,681.5C837.532,693.44 831.532,704.773 824.5,715.5C821.14,714.79 819.307,716.124 819,719.5C817.853,718.542 816.853,718.875 816,720.5C814.798,722.677 814.298,725.011 814.5,727.5C810.935,728.324 808.935,730.657 808.5,734.5C807.522,734.977 806.689,735.643 806,736.5C804.713,733.855 802.547,732.855 799.5,733.5L799.5,727.5C804.797,726.968 804.797,726.134 799.5,725C802.293,724.256 803.793,722.423 804,719.5C804.497,715.476 804.331,711.476 803.5,707.5C798.585,706.527 793.751,706.193 789,706.5C787.024,707.543 786.524,708.877 787.5,710.5C786.311,711.429 784.978,711.762 783.5,711.5L783.5,719.5C786.998,719.565 787.498,720.899 785,723.5C781.154,722.068 778.987,719.401 778.5,715.5C779.329,712.531 779.495,709.531 779,706.5C777.755,706.461 776.422,706.795 775,707.5C773.378,707.046 772.212,706.046 771.5,704.5C767.5,703.167 763.5,703.167 759.5,704.5C758.938,708.413 757.438,709.079 755,706.5C753.989,707.337 752.822,707.67 751.5,707.5L751.5,696.5C764.206,695.639 776.873,695.639 789.5,696.5C797.641,695.786 805.808,695.12 814,694.5C817.203,696.155 819.869,695.489 822,692.5C822.333,692.833 822.667,693.167 823,693.5C823.499,689.514 823.666,685.514 823.5,681.5C827.893,681.32 832.226,680.653 836.5,679.5C838.167,679.667 839.833,679.833 841.5,680C842.056,680.383 842.389,680.883 842.5,681.5Z" style="fill:rgb(218,232,236);"/>
        </g>
        <g>
            <path d="M503.5,686.5C507.96,685.885 511.96,686.885 515.5,689.5C518.822,700.022 514.822,704.188 503.5,702C499.139,699.774 497.639,696.274 499,691.5C500.025,689.313 501.525,687.646 503.5,686.5Z" style="fill:rgb(246,249,250);"/>
        </g>
        <g>
            <path d="M346.5,691.5C348.386,692.361 350.22,693.361 352,694.5C352.333,711.167 352.667,727.833 353,744.5C354.141,763.586 359.141,781.586 368,798.5C392.463,843.16 429.963,869.16 480.5,876.5L480.5,892.5C404.84,885.96 337.173,859.627 277.5,813.5C240.329,783.01 209.329,747.343 184.5,706.5C184.178,704.278 184.845,702.444 186.5,701C190.114,698.167 191.781,699 191.5,703.5L195.5,703.5C195.664,700.813 195.497,698.146 195,695.5C193.35,693.958 193.85,692.958 196.5,692.5L240.5,692.5C237.824,700.29 236.991,708.29 238,716.5C240.24,719.402 243.073,721.569 246.5,723C271.831,723.5 297.164,723.667 322.5,723.5C322.666,728.179 322.499,732.845 322,737.5C321.167,738.333 320.333,739.167 319.5,740C314.386,740.109 309.386,740.776 304.5,742C300.074,747.441 300.741,752.108 306.5,756C310.729,755.579 314.896,755.746 319,756.5C322.421,770.35 325.921,784.183 329.5,798C327.652,801.347 324.985,803.847 321.5,805.5C313.424,800.921 305.757,795.754 298.5,790C285.895,778.4 274.395,765.9 264,752.5C263.133,739.66 256.633,735.16 244.5,739C237.833,745.333 237.833,751.667 244.5,758C247.089,759.197 249.756,760.197 252.5,761C270.768,786.607 293.435,807.273 320.5,823C334.659,830.243 348.326,838.243 361.5,847C369.584,852.86 375.251,851.193 378.5,842C378.205,839.077 376.871,836.743 374.5,835C365.833,830.667 357.167,826.333 348.5,822C344.534,819.694 340.868,817.028 337.5,814C339.645,811.855 341.812,809.688 344,807.5C344.923,805.966 345.423,804.299 345.5,802.5C342.158,788.131 338.658,773.798 335,759.5C334.013,752.807 334.846,746.473 337.5,740.5C338.496,724.342 338.83,708.009 338.5,691.5L346.5,691.5Z" style="fill:rgb(231,241,247);"/>
        </g>
        <g>
            <path d="M216.5,708.5C223.657,708.155 226.824,711.488 226,718.5C222.171,724.703 217.838,725.036 213,719.5C211.663,714.916 212.829,711.249 216.5,708.5Z" style="fill:rgb(10,29,44);"/>
        </g>
        <g>
            <path d="M162.5,661.5C168.522,677.21 175.855,692.21 184.5,706.5C209.329,747.343 240.329,783.01 277.5,813.5C275.858,815.081 273.858,815.747 271.5,815.5C271.666,819.514 271.499,823.514 271,827.5C270.308,828.025 269.808,828.692 269.5,829.5C272.087,832.756 275.42,834.756 279.5,835.5C279.831,837.322 280.498,838.989 281.5,840.5C222.251,798.334 177.918,744 148.5,677.5C150.121,677.787 151.121,678.787 151.5,680.5C152.689,681.429 154.022,681.762 155.5,681.5C155.697,675.455 155.363,669.455 154.5,663.5C157.267,663.142 159.933,662.475 162.5,661.5Z" style="fill:rgb(4,29,47);"/>
        </g>
        <g>
            <path d="M464.5,721.5C479.17,721.333 493.837,721.5 508.5,722C517.373,724.95 519.873,730.783 516,739.5C514.269,741.617 512.102,743.117 509.5,744C494.833,744.667 480.167,744.667 465.5,744C453.948,736.893 453.615,729.393 464.5,721.5Z" style="fill:rgb(249,250,251);"/>
        </g>
        <g>
            <path d="M545.5,722.5C559.683,722.194 563.85,728.528 558,741.5C550.891,746.282 544.891,745.282 540,738.5C537.571,731.693 539.405,726.359 545.5,722.5Z" style="fill:rgb(247,249,250);"/>
        </g>
        <g>
            <path d="M851.5,661.5C849.013,668.468 846.013,675.135 842.5,681.5C842.389,680.883 842.056,680.383 841.5,680C839.833,679.833 838.167,679.667 836.5,679.5C832.226,680.653 827.893,681.32 823.5,681.5C823.666,685.514 823.499,689.514 823,693.5C822.667,693.167 822.333,692.833 822,692.5C819.869,695.489 817.203,696.155 814,694.5C805.808,695.12 797.641,695.786 789.5,696.5C776.873,695.639 764.206,695.639 751.5,696.5L751.5,707.5C752.822,707.67 753.989,707.337 755,706.5C757.438,709.079 758.938,708.413 759.5,704.5C763.5,703.167 767.5,703.167 771.5,704.5C772.212,706.046 773.378,707.046 775,707.5C776.422,706.795 777.755,706.461 779,706.5C779.495,709.531 779.329,712.531 778.5,715.5C778.987,719.401 781.154,722.068 785,723.5C787.498,720.899 786.998,719.565 783.5,719.5L783.5,711.5C784.978,711.762 786.311,711.429 787.5,710.5C786.524,708.877 787.024,707.543 789,706.5C793.751,706.193 798.585,706.527 803.5,707.5C804.331,711.476 804.497,715.476 804,719.5C803.793,722.423 802.293,724.256 799.5,725C804.797,726.134 804.797,726.968 799.5,727.5L799.5,733.5C802.547,732.855 804.713,733.855 806,736.5C806.689,735.643 807.522,734.977 808.5,734.5C808.935,730.657 810.935,728.324 814.5,727.5C814.298,725.011 814.798,722.677 816,720.5C816.853,718.875 817.853,718.542 819,719.5C819.307,716.124 821.14,714.79 824.5,715.5C823.4,716.605 822.733,717.938 822.5,719.5C813.264,732.278 803.764,744.944 794,757.5C726.039,838.235 639.206,883.235 533.5,892.5L533.5,876.5C543.69,875.286 553.69,873.12 563.5,870C620.966,848.186 653.466,806.686 661,745.5C661.167,728.49 661.667,711.49 662.5,694.5C675.403,687.586 683.403,676.919 686.5,662.5C741.496,661.5 796.496,661.167 851.5,661.5Z" style="fill:rgb(215,229,236);"/>
        </g>
        <g>
            <path d="M791.5,708.5C799.201,708.362 802.367,712.029 801,719.5C796.155,725.079 791.822,724.746 788,718.5C787.182,714.469 788.349,711.136 791.5,708.5Z" style="fill:rgb(7,27,46);"/>
        </g>
        <g>
            <path d="M734.5,708.5C742.168,708.332 745.335,711.999 744,719.5C738.837,725.062 734.171,724.729 730,718.5C729.333,716.833 729.333,715.167 730,713.5C731.707,711.963 733.207,710.296 734.5,708.5Z" style="fill:rgb(8,30,51);"/>
        </g>
        <g>
            <path d="M778.5,715.5C777.735,728.459 771.401,732.626 759.5,728C755.695,723.909 754.528,719.076 756,713.5C759.636,707.823 764.803,705.99 771.5,708C774.406,710.069 776.739,712.569 778.5,715.5Z" style="fill:rgb(5,28,47);"/>
        </g>
        <g>
            <path d="M815.5,679.5C820.842,681.029 822.342,684.362 820,689.5C818.786,691.049 817.286,692.215 815.5,693C775.5,693.333 735.5,693.667 695.5,694C693.951,695.214 692.785,696.714 692,698.5C691.501,702.152 691.335,705.818 691.5,709.5C698.203,709.441 704.869,709.274 711.5,709C717.792,711.474 719.125,715.64 715.5,721.5C714.335,722.584 713.002,723.417 711.5,724C704.862,723.789 698.196,723.622 691.5,723.5L691.5,740.5C695.273,740.263 698.94,740.763 702.5,742C708.315,747.592 707.648,752.258 700.5,756C697.808,756.43 695.141,756.263 692.5,755.5C690.417,770.83 687.417,785.997 683.5,801C684.9,804.478 687.4,806.978 691,808.5C713.173,793.996 732.507,776.329 749,755.5C751.048,752.187 752.048,748.521 752,744.5C756.128,737.511 761.961,735.678 769.5,739C774.745,743.517 775.912,749.017 773,755.5C769.845,758.667 766.012,760.501 761.5,761C744.035,786.133 722.368,806.8 696.5,823C680.296,832.268 663.962,841.268 647.5,850C638.884,851.717 635.051,848.217 636,839.5C637.167,838.333 638.333,837.167 639.5,836C651.75,830.07 663.75,823.736 675.5,817C670.91,813.424 668.577,808.757 668.5,803C670.944,791.174 673.444,779.34 676,767.5C676.333,742.833 676.667,718.167 677,693.5C679.347,687.322 683.513,682.988 689.5,680.5C731.476,679.522 773.476,679.189 815.5,679.5Z" style="fill:rgb(5,29,50);"/>
        </g>
        <g>
            <path d="M815.5,679.5C773.476,679.189 731.476,679.522 689.5,680.5C689.918,679.778 690.584,679.278 691.5,679C733.002,678.169 774.335,678.335 815.5,679.5Z" style="fill:rgb(22,45,58);"/>
        </g>
        <g>
            <path d="M555.5,851.5C555.414,850.504 555.748,849.671 556.5,849C597.5,822.809 620.5,785.642 625.5,737.5C625.131,713.569 614.131,697.569 592.5,689.5C588.27,683.257 583.603,677.257 578.5,671.5C584.675,667.912 591.009,664.578 597.5,661.5C599.512,667.365 602.012,673.031 605,678.5C613.965,691.569 626.465,698.235 642.5,698.5C642.667,711.837 642.5,725.171 642,738.5C636.759,794.351 607.925,832.018 555.5,851.5Z" style="fill:rgb(209,223,231);"/>
        </g>
        <g>
            <path d="M719.5,740.5C728.158,739.327 731.992,742.994 731,751.5C728.103,756.155 723.937,757.655 718.5,756C712.974,750.357 713.308,745.19 719.5,740.5Z" style="fill:rgb(4,28,49);"/>
        </g>
        <g>
            <path d="M463.5,764.5C479.17,764.333 494.837,764.5 510.5,765C521.142,772.103 521.142,779.103 510.5,786C495.167,786.667 479.833,786.667 464.5,786C454.329,779.307 453.996,772.141 463.5,764.5Z" style="fill:rgb(251,252,253);"/>
        </g>
        <g>
            <path d="M545.5,764.5C555.84,763.023 561.007,767.356 561,777.5C558.746,784.549 553.913,787.382 546.5,786C536.329,779.307 535.996,772.141 545.5,764.5Z" style="fill:rgb(245,248,249);"/>
        </g>
        <g>
            <path d="M337.5,740.5C334.846,746.473 334.013,752.807 335,759.5C338.658,773.798 342.158,788.131 345.5,802.5C345.423,804.299 344.923,805.966 344,807.5C341.812,809.688 339.645,811.855 337.5,814C340.868,817.028 344.534,819.694 348.5,822C357.167,826.333 365.833,830.667 374.5,835C376.871,836.743 378.205,839.077 378.5,842C375.251,851.193 369.584,852.86 361.5,847C348.326,838.243 334.659,830.243 320.5,823C293.435,807.273 270.768,786.607 252.5,761C249.756,760.197 247.089,759.197 244.5,758C237.833,751.667 237.833,745.333 244.5,739C256.633,735.16 263.133,739.66 264,752.5C274.395,765.9 285.895,778.4 298.5,790C305.757,795.754 313.424,800.921 321.5,805.5C324.985,803.847 327.652,801.347 329.5,798C325.921,784.183 322.421,770.35 319,756.5C314.896,755.746 310.729,755.579 306.5,756C300.741,752.108 300.074,747.441 304.5,742C309.386,740.776 314.386,740.109 319.5,740C320.333,739.167 321.167,738.333 322,737.5C322.499,732.845 322.666,728.179 322.5,723.5C297.164,723.667 271.831,723.5 246.5,723C243.073,721.569 240.24,719.402 238,716.5C236.991,708.29 237.824,700.29 240.5,692.5L196.5,692.5C195.878,691.373 195.045,690.373 194,689.5C193.833,688.167 193.667,686.833 193.5,685.5C192.984,682.185 194.317,680.018 197.5,679C240.226,678.016 282.893,678.35 325.5,680C330.382,683.214 334.215,687.381 337,692.5C337.5,708.497 337.667,724.497 337.5,740.5Z" style="fill:rgb(4,29,49);"/>
        </g>
        <g>
            <path d="M283.5,740.5C290.19,739.196 294.19,741.863 295.5,748.5C294.982,753.355 292.315,755.688 287.5,755.5C280.586,755.035 278.086,751.368 280,744.5C280.69,742.65 281.856,741.316 283.5,740.5Z" style="fill:rgb(5,26,47);"/>
        </g>
        <g>
            <path d="M256.5,692.5C276.503,692.333 296.503,692.5 316.5,693C319.583,693.786 321.749,695.619 323,698.5C323.499,702.486 323.666,706.486 323.5,710.5C300.831,710.667 278.164,710.5 255.5,710C253.82,709.653 252.82,708.653 252.5,707C253.451,702.027 254.784,697.193 256.5,692.5Z" style="fill:rgb(213,226,233);"/>
        </g>
        <g>
            <path d="M397.5,852.5C404.685,852.848 407.519,856.515 406,863.5C402.011,868.356 397.678,868.689 393,864.5C391.309,859.131 392.809,855.131 397.5,852.5Z" style="fill:rgb(6,27,51);"/>
        </g>
        <g>
            <path d="M612.5,853.5C622.309,853.138 624.976,857.305 620.5,866C611.738,868.91 608.238,865.744 610,856.5C611.045,855.627 611.878,854.627 612.5,853.5Z" style="fill:rgb(6,27,46);"/>
        </g>
    </g>
</svg>
